Exact Audio Copy V0.99 prebeta 1 from 25. May 2007

EAC 抓取日志文件从15. 五月 2011, 21:41

群星 / 流行歌坛名人2

使用驱动器  ：PIONEER DVD-RW  DVR-115   Adapter: 0  ID: 0

读取模式     : 保护
使用精确流   : 是
废除音频缓冲 : 是
使用 C2 指针 : 否

读取偏移校正                   : 48
读取 Lead-In 和 Lead-Out       : 否
用静音填充抓取中丢失偏移的采样 : 是
去除首尾静音块                 : 否
已用接口                       : Win NT 及 2000 本地 Win32 接口

所用输出格式 : 内部 WAV 函数
样本格式     : 44.100 Hz;16 Bit;立体声
使用压缩偏移 : 48


被抓轨 CD 的 TOC

     音轨 |   开始   |   长度   | 起始扇区 | 结尾扇区 
    --------------------------------------------------
       1  |  0:00.32 |  4:34.15 |      32  |   20596  
       2  |  4:34.47 |  3:48.25 |   20597  |   37721  
       3  |  8:22.72 |  4:19.05 |   37722  |   57151  
       4  | 12:42.02 |  3:12.50 |   57152  |   71601  
       5  | 15:54.52 |  5:39.10 |   71602  |   97036  
       6  | 21:33.62 |  6:27.73 |   97037  |  126134  
       7  | 28:01.60 |  4:16.65 |  126135  |  145399  
       8  | 32:18.50 |  4:56.50 |  145400  |  167649  
       9  | 37:15.25 |  4:04.42 |  167650  |  185991  
      10  | 41:19.67 |  4:06.73 |  185992  |  204514  
      11  | 45:26.65 |  5:18.57 |  204515  |  228421  
      12  | 50:45.47 |  5:12.00 |  228422  |  251821  
      13  | 55:57.47 |  5:24.53 |  251822  |  276174  


范围状态及错误

已选择范围

     文件名 E:\20世纪中华歌坛名人百集珍藏版-流行歌坛名人2[lwg188原创]\群星 - 流行歌坛名人2.wav

     峰值电平 100.0 %
     范围质量 100.0 %
     复制 CRC B262A642
     复制成功

没有错误发生

状态报告结尾
